# Created by FreeCAD <http://www.freecad.org>
v 33.000000 0.000000 0.000000 204 204 204
v 26.697561 19.396914 0.000000 204 204 204
v 33.000000 0.000000 230.000000 204 204 204
v 26.697561 19.396914 230.000000 204 204 204
v 10.197561 31.384865 0.000000 204 204 204
v 10.197561 31.384865 230.000000 204 204 204
v -10.197561 31.384865 0.000000 204 204 204
v -10.197561 31.384865 230.000000 204 204 204
v -26.697561 19.396914 230.000000 204 204 204
v -26.697561 19.396914 0.000000 204 204 204
v -33.000000 0.000000 0.000000 204 204 204
v -33.000000 0.000000 230.000000 204 204 204
v -26.697561 -19.396914 0.000000 204 204 204
v -26.697561 -19.396914 230.000000 204 204 204
v -10.197561 -31.384865 230.000000 204 204 204
v -10.197561 -31.384865 0.000000 204 204 204
v 10.197561 -31.384865 0.000000 204 204 204
v 10.197561 -31.384865 230.000000 204 204 204
v 26.697561 -19.396914 0.000000 204 204 204
v 26.697561 -19.396914 230.000000 204 204 204
v 21.843458 15.870202 0.000000 204 204 204
v 27.000000 0.000000 0.000000 204 204 204
v 27.000000 0.000000 230.000000 204 204 204
v 21.843458 15.870202 230.000000 204 204 204
v 8.343459 25.678526 0.000000 204 204 204
v 8.343459 25.678526 230.000000 204 204 204
v -8.343459 25.678526 0.000000 204 204 204
v -8.343459 25.678526 230.000000 204 204 204
v -21.843458 15.870202 230.000000 204 204 204
v -21.843458 15.870202 0.000000 204 204 204
v -27.000000 0.000000 0.000000 204 204 204
v -27.000000 0.000000 230.000000 204 204 204
v -21.843458 -15.870202 0.000000 204 204 204
v -21.843458 -15.870202 230.000000 204 204 204
v -8.343459 -25.678526 230.000000 204 204 204
v -8.343459 -25.678526 0.000000 204 204 204
v 8.343459 -25.678526 0.000000 204 204 204
v 8.343459 -25.678526 230.000000 204 204 204
v 21.843458 -15.870202 0.000000 204 204 204
v 21.843458 -15.870202 230.000000 204 204 204
vn 0.951057 0.309017 -0.000000
vn 0.951057 0.309017 0.000000
vn 0.587785 0.809017 0.000000
vn 0.587785 0.809017 -0.000000
vn 0.000000 1.000000 0.000000
vn -0.587785 0.809017 0.000000
vn 0.000000 1.000000 -0.000000
vn -0.587785 0.809017 0.000000
vn -0.951057 0.309017 0.000000
vn -0.951057 0.309017 0.000000
vn -0.951057 -0.309017 0.000000
vn -0.587785 -0.809017 -0.000000
vn -0.951057 -0.309017 0.000000
vn -0.587785 -0.809017 0.000000
vn 0.000000 -1.000000 0.000000
vn 0.000000 -1.000000 0.000000
vn 0.587785 -0.809017 0.000000
vn 0.587785 -0.809017 0.000000
vn 0.951057 -0.309017 0.000000
vn 0.951057 -0.309017 0.000000
vn -0.951056 -0.309017 0.000000
vn -0.951056 -0.309017 0.000000
vn -0.587785 -0.809017 0.000000
vn -0.587785 -0.809017 0.000000
vn 0.000000 -1.000000 0.000000
vn 0.587785 -0.809017 0.000000
vn 0.000000 -1.000000 0.000000
vn 0.587785 -0.809017 0.000000
vn 0.951056 -0.309017 0.000000
vn 0.951056 -0.309017 0.000000
vn 0.951056 0.309017 -0.000000
vn 0.587785 0.809017 -0.000000
vn 0.951056 0.309017 0.000000
vn 0.587785 0.809017 -0.000000
vn 0.000000 1.000000 -0.000000
vn 0.000000 1.000000 0.000000
vn -0.587785 0.809017 0.000000
vn -0.587785 0.809017 0.000000
vn -0.951056 0.309017 0.000000
vn -0.951056 0.309017 0.000000
vn 0.000000 0.000000 -1.000000
vn 0.000000 -0.000000 -1.000000
vn 0.000000 0.000000 -1.000000
vn 0.000000 0.000000 -1.000000
vn 0.000000 0.000000 -1.000000
vn 0.000000 -0.000000 -1.000000
vn 0.000000 0.000000 -1.000000
vn 0.000000 -0.000000 -1.000000
vn 0.000000 0.000000 -1.000000
vn 0.000000 -0.000000 -1.000000
vn 0.000000 0.000000 -1.000000
vn 0.000000 0.000000 -1.000000
vn 0.000000 -0.000000 -1.000000
vn 0.000000 0.000000 -1.000000
vn 0.000000 0.000000 -1.000000
vn 0.000000 0.000000 -1.000000
vn 0.000000 0.000000 -1.000000
vn 0.000000 0.000000 -1.000000
vn 0.000000 0.000000 -1.000000
vn 0.000000 -0.000000 -1.000000
vn 0.000000 0.000000 1.000000
vn 0.000000 0.000000 1.000000
vn 0.000000 0.000000 1.000000
vn 0.000000 0.000000 1.000000
vn 0.000000 0.000000 1.000000
vn 0.000000 0.000000 1.000000
vn 0.000000 0.000000 1.000000
vn 0.000000 0.000000 1.000000
vn 0.000000 0.000000 1.000000
vn 0.000000 0.000000 1.000000
vn 0.000000 0.000000 1.000000
vn 0.000000 0.000000 1.000000
vn 0.000000 0.000000 1.000000
vn 0.000000 0.000000 1.000000
vn 0.000000 0.000000 1.000000
vn 0.000000 0.000000 1.000000
vn 0.000000 0.000000 1.000000
vn 0.000000 0.000000 1.000000
vn 0.000000 0.000000 1.000000
vn 0.000000 0.000000 1.000000
f 1//1 2//1 3//1
f 3//2 2//2 4//2
f 4//3 5//3 6//3
f 2//4 5//4 4//4
f 6//5 7//5 8//5
f 8//6 7//6 9//6
f 5//7 7//7 6//7
f 7//8 10//8 9//8
f 9//9 11//9 12//9
f 10//10 11//10 9//10
f 12//11 13//11 14//11
f 14//12 13//12 15//12
f 11//13 13//13 12//13
f 13//14 16//14 15//14
f 15//15 17//15 18//15
f 16//16 17//16 15//16
f 18//17 19//17 20//17
f 17//18 19//18 18//18
f 20//19 1//19 3//19
f 19//20 1//20 20//20
f 21//21 22//21 23//21
f 21//22 23//22 24//22
f 25//23 24//23 26//23
f 25//24 21//24 24//24
f 27//25 26//25 28//25
f 27//26 28//26 29//26
f 27//27 25//27 26//27
f 30//28 27//28 29//28
f 31//29 29//29 32//29
f 31//30 30//30 29//30
f 33//31 32//31 34//31
f 33//32 34//32 35//32
f 33//33 31//33 32//33
f 36//34 33//34 35//34
f 37//35 35//35 38//35
f 37//36 36//36 35//36
f 39//37 38//37 40//37
f 39//38 37//38 38//38
f 22//39 40//39 23//39
f 22//40 39//40 40//40
f 13//41 36//41 16//41
f 33//42 36//42 13//42
f 11//43 31//43 13//43
f 13//44 31//44 33//44
f 16//45 37//45 17//45
f 36//46 37//46 16//46
f 11//47 10//47 31//47
f 10//48 30//48 31//48
f 37//49 39//49 17//49
f 39//50 19//50 17//50
f 30//51 7//51 27//51
f 10//52 7//52 30//52
f 22//53 1//53 39//53
f 39//54 1//54 19//54
f 27//55 5//55 25//55
f 7//56 5//56 27//56
f 21//57 2//57 22//57
f 25//58 2//58 21//58
f 22//59 2//59 1//59
f 5//60 2//60 25//60
f 35//61 14//61 15//61
f 35//62 34//62 14//62
f 32//63 12//63 14//63
f 32//64 14//64 34//64
f 38//65 15//65 18//65
f 38//66 35//66 15//66
f 9//67 12//67 32//67
f 29//68 9//68 32//68
f 40//69 38//69 18//69
f 20//70 40//70 18//70
f 8//71 29//71 28//71
f 8//72 9//72 29//72
f 3//73 23//73 40//73
f 3//74 40//74 20//74
f 6//75 28//75 26//75
f 6//76 8//76 28//76
f 4//77 24//77 23//77
f 4//78 26//78 24//78
f 4//79 23//79 3//79
f 4//80 6//80 26//80
